<?xml version="1.0" encoding="utf-8"?>
<!-- Generator: Adobe Illustrator 27.0.0, SVG Export Plug-In . SVG Version: 6.00 Build 0)  -->
<svg version="1.1" id="Layer_1" xmlns="http://www.w3.org/2000/svg" xmlns:xlink="http://www.w3.org/1999/xlink" x="0px" y="0px"
	 viewBox="0 0 800 540" style="enable-background:new 0 0 800 540;" xml:space="preserve">
<style type="text/css">
	.st0{fill-rule:evenodd;clip-rule:evenodd;fill:#CDCCE2;}
	.st1{fill-rule:evenodd;clip-rule:evenodd;fill:#A3A1D1;fill-opacity:0.5;}
	.st2{opacity:0.55;fill-rule:evenodd;clip-rule:evenodd;fill:#F0B9F0;}
	.st3{fill-rule:evenodd;clip-rule:evenodd;fill:#FFFFFF;}
	.st4{fill-rule:evenodd;clip-rule:evenodd;fill:#D36BD3;}
	.st5{opacity:0.5;fill-rule:evenodd;clip-rule:evenodd;fill:#F0B9F0;}
</style>
<ellipse id="Oval-Copy" class="st0" cx="291.8" cy="270" rx="205.8" ry="206"/>
<ellipse id="Oval-Copy-2" class="st1" cx="345.3" cy="270" rx="144.1" ry="144.2"/>
<ellipse id="Oval-Copy-4" class="st2" cx="484.5" cy="274.6" rx="170.7" ry="170.8"/>
<path id="A" class="st3" d="M147.8,272.1l-3-10.4l-3.1,10.4H147.8z M156.5,279.7h-6.3l-1-3.1h-9l-1,3.1h-6.2l9-25.2h5.4L156.5,279.7
	z"/>
<path id="B" class="st3" d="M253.8,279.7v-25.2h10.4c6.9,0,8.2,4.2,8.2,6.8c0,3.1-2.4,5.1-4.4,5.6c1.6,0,4.6,1.9,4.6,5.7
	c0,2.6-1.4,7.1-8.3,7.1H253.8z M259.5,264.8h3.5c2.8,0,3.5-1.8,3.5-3c0-1.1-0.5-3-3.5-3h-3.5V264.8z M263.2,269h-3.7v6.2h3.6
	c2.8,0,3.5-1.7,3.5-3.1C266.7,271,266,269,263.2,269z"/>
<polygon id="E" class="st3" points="530,259.2 520.4,259.2 520.4,264.9 530,264.9 530,269.5 520.4,269.5 520.4,275 530,275 
	530,279.7 514.6,279.7 514.6,254.5 530,254.5 "/>
<ellipse id="Oval-Copy-2_00000153668209737016153930000002550062211086908306_" class="st4" cx="398.9" cy="270" rx="82.3" ry="82.4"/>
<ellipse id="Oval-Copy-3" class="st5" cx="423.6" cy="270" rx="41.2" ry="41.2"/>
<path id="C" class="st3" d="M360.6,270.7h6.2c-1,5.4-5.6,9.7-12.6,9.7c-8.5,0-13.5-6.2-13.5-13.3c0-6.9,5-13.2,13.2-13.2
	c7.8,0,12.1,4.7,12.9,10.4h-6.1c-0.5-3-2.8-5.2-6.4-5.2c-4.9,0-7.6,3.8-7.6,8c0,4.4,2.9,8,7.9,8C357.4,275.1,360,273.2,360.6,270.7z
	"/>
<path id="D" class="st3" d="M401.3,254.5h9.3c8.4,0,13.1,6.2,13.1,12.6s-4.7,12.6-13.1,12.6h-9.3V254.5z M410.2,259.5h-3.1v15.1h3.1
	c4.7,0,7.5-3.7,7.5-7.6S414.9,259.5,410.2,259.5z"/>
</svg>
